# xmcd CD database file
#
# Track frame offsets:
#	150
#	28182
#	56382
#	83435
#	110802
#	131652
#
# Disc length: 2164 seconds
#
# Revision: 0
# Processed by: cddbd v1.5.2PL0 Copyright (c) Steve Scherf et al.
# Submitted via: CDex 1.51
#
DISCID=48087206
DTITLE=Jimmy McGriff - Red Beans
DYEAR=1976
DGENRE=Jazz
TTITLE0=Red Beans
TTITLE1=Big Booty Bounce
TTITLE2=Space Cadet
TTITLE3=Cakes Alive
TTITLE4=Sweet Love
TTITLE5=Love is my Life
EXTD=YEAR: 1976
EXTT0=
EXTT1=
EXTT2=
EXTT3=
EXTT4=
EXTT5=
PLAYORDER=
